<mxfile host="app.diagrams.net" agent="Mozilla/5.0 (Windows NT 10.0; Win64; x64) AppleWebKit/537.36 (KHTML, like Gecko) Chrome/128.0.0.0 Safari/537.36" version="24.7.10">
  <diagram name="Page-1" id="74e2e168-ea6b-b213-b513-2b3c1d86103e">
    <mxGraphModel dx="1276" dy="499" grid="1" gridSize="10" guides="1" tooltips="1" connect="1" arrows="1" fold="1" page="1" pageScale="1" pageWidth="1100" pageHeight="850" background="none" math="0" shadow="0">
      <root>
        <mxCell id="0" />
        <mxCell id="1" parent="0" />
        <mxCell id="77e6c97f196da883-1" value="Pool" style="swimlane;html=1;childLayout=stackLayout;startSize=0;rounded=0;shadow=0;labelBackgroundColor=none;strokeWidth=1;fontFamily=Verdana;fontSize=8;align=center;" parent="1" vertex="1">
          <mxGeometry x="97" y="20" width="1030" height="970" as="geometry" />
        </mxCell>
        <mxCell id="77e6c97f196da883-2" value="COMPANY" style="swimlane;html=1;startSize=20;" parent="77e6c97f196da883-1" vertex="1">
          <mxGeometry width="240" height="970" as="geometry" />
        </mxCell>
        <mxCell id="nSxlMIZwYaIGK_Xv7DRQ-11" value="" style="edgeStyle=orthogonalEdgeStyle;rounded=0;orthogonalLoop=1;jettySize=auto;html=1;strokeColor=default;" edge="1" parent="77e6c97f196da883-2">
          <mxGeometry relative="1" as="geometry">
            <mxPoint x="131" y="56" as="sourcePoint" />
            <mxPoint x="131" y="85" as="targetPoint" />
          </mxGeometry>
        </mxCell>
        <mxCell id="nSxlMIZwYaIGK_Xv7DRQ-10" value="&lt;h1&gt;&lt;font face=&quot;Helvetica&quot; style=&quot;font-size: 18px;&quot;&gt;Signup&lt;/font&gt;&lt;/h1&gt;" style="html=1;dashed=0;whiteSpace=wrap;" vertex="1" parent="77e6c97f196da883-2">
          <mxGeometry x="84" y="84" width="100" height="30" as="geometry" />
        </mxCell>
        <mxCell id="nSxlMIZwYaIGK_Xv7DRQ-14" value="" style="ellipse;whiteSpace=wrap;html=1;aspect=fixed;fillColor=#1A1A1A;" vertex="1" parent="77e6c97f196da883-2">
          <mxGeometry x="117" y="25" width="30" height="30" as="geometry" />
        </mxCell>
        <mxCell id="nSxlMIZwYaIGK_Xv7DRQ-16" value="&lt;h1&gt;&lt;font face=&quot;Helvetica&quot; style=&quot;font-size: 18px;&quot;&gt;Login&lt;/font&gt;&lt;/h1&gt;" style="html=1;dashed=0;whiteSpace=wrap;" vertex="1" parent="77e6c97f196da883-2">
          <mxGeometry x="86" y="143" width="100" height="30" as="geometry" />
        </mxCell>
        <mxCell id="nSxlMIZwYaIGK_Xv7DRQ-21" value="" style="edgeStyle=orthogonalEdgeStyle;rounded=0;orthogonalLoop=1;jettySize=auto;html=1;strokeColor=default;" edge="1" parent="77e6c97f196da883-2">
          <mxGeometry relative="1" as="geometry">
            <mxPoint x="131.5" y="114" as="sourcePoint" />
            <mxPoint x="131.5" y="143" as="targetPoint" />
          </mxGeometry>
        </mxCell>
        <mxCell id="nSxlMIZwYaIGK_Xv7DRQ-33" value="" style="edgeStyle=elbowEdgeStyle;rounded=0;orthogonalLoop=1;jettySize=auto;html=1;exitX=0;exitY=0;exitDx=0;exitDy=0;" edge="1" parent="77e6c97f196da883-2">
          <mxGeometry relative="1" as="geometry">
            <mxPoint x="114" y="269.5" as="sourcePoint" />
            <mxPoint x="86" y="167" as="targetPoint" />
            <Array as="points">
              <mxPoint x="56" y="227" />
            </Array>
          </mxGeometry>
        </mxCell>
        <mxCell id="nSxlMIZwYaIGK_Xv7DRQ-24" value="&lt;font face=&quot;Garamond&quot; style=&quot;font-size: 10px;&quot;&gt;Decision&lt;/font&gt;" style="shape=rhombus;html=1;dashed=0;whiteSpace=wrap;perimeter=rhombusPerimeter;" vertex="1" parent="77e6c97f196da883-2">
          <mxGeometry x="114" y="252" width="37" height="30" as="geometry" />
        </mxCell>
        <mxCell id="nSxlMIZwYaIGK_Xv7DRQ-27" value="&lt;h1&gt;&lt;font face=&quot;Helvetica&quot; style=&quot;font-size: 18px;&quot;&gt;Authentication&lt;/font&gt;&lt;/h1&gt;" style="html=1;dashed=0;whiteSpace=wrap;" vertex="1" parent="77e6c97f196da883-2">
          <mxGeometry x="70" y="200" width="138" height="28" as="geometry" />
        </mxCell>
        <mxCell id="nSxlMIZwYaIGK_Xv7DRQ-31" value="" style="edgeStyle=orthogonalEdgeStyle;rounded=0;orthogonalLoop=1;jettySize=auto;html=1;" edge="1" parent="77e6c97f196da883-2">
          <mxGeometry relative="1" as="geometry">
            <mxPoint x="133" y="228" as="sourcePoint" />
            <mxPoint x="132.5" y="255" as="targetPoint" />
          </mxGeometry>
        </mxCell>
        <mxCell id="nSxlMIZwYaIGK_Xv7DRQ-106" value="&lt;h1&gt;&lt;font face=&quot;Helvetica&quot; style=&quot;font-size: 18px;&quot;&gt;Post A Job Vacancy&lt;/font&gt;&lt;/h1&gt;" style="html=1;dashed=0;whiteSpace=wrap;" vertex="1" parent="77e6c97f196da883-2">
          <mxGeometry x="36" y="392" width="178" height="28" as="geometry" />
        </mxCell>
        <mxCell id="nSxlMIZwYaIGK_Xv7DRQ-146" value="" style="edgeStyle=orthogonalEdgeStyle;rounded=0;orthogonalLoop=1;jettySize=auto;html=1;" edge="1" parent="77e6c97f196da883-2" source="nSxlMIZwYaIGK_Xv7DRQ-136" target="nSxlMIZwYaIGK_Xv7DRQ-145">
          <mxGeometry relative="1" as="geometry" />
        </mxCell>
        <mxCell id="nSxlMIZwYaIGK_Xv7DRQ-136" value="&lt;h1&gt;&lt;font face=&quot;Helvetica&quot; style=&quot;font-size: 18px;&quot;&gt;View Matched Jobseeker&lt;/font&gt;&lt;/h1&gt;" style="html=1;dashed=0;whiteSpace=wrap;" vertex="1" parent="77e6c97f196da883-2">
          <mxGeometry x="11" y="589" width="220" height="28" as="geometry" />
        </mxCell>
        <mxCell id="nSxlMIZwYaIGK_Xv7DRQ-139" value="&lt;h1&gt;&lt;font face=&quot;Helvetica&quot; style=&quot;font-size: 18px;&quot;&gt;Send Notif. for Interview&lt;/font&gt;&lt;/h1&gt;" style="html=1;dashed=0;whiteSpace=wrap;" vertex="1" parent="77e6c97f196da883-2">
          <mxGeometry x="32" y="730" width="178" height="50" as="geometry" />
        </mxCell>
        <mxCell id="nSxlMIZwYaIGK_Xv7DRQ-148" value="" style="edgeStyle=orthogonalEdgeStyle;rounded=0;orthogonalLoop=1;jettySize=auto;html=1;" edge="1" parent="77e6c97f196da883-2" source="nSxlMIZwYaIGK_Xv7DRQ-145" target="nSxlMIZwYaIGK_Xv7DRQ-139">
          <mxGeometry relative="1" as="geometry" />
        </mxCell>
        <mxCell id="nSxlMIZwYaIGK_Xv7DRQ-145" value="&lt;h1&gt;&lt;font face=&quot;Helvetica&quot; style=&quot;font-size: 18px;&quot;&gt;View Jobseeker Application&lt;/font&gt;&lt;/h1&gt;" style="html=1;dashed=0;whiteSpace=wrap;" vertex="1" parent="77e6c97f196da883-2">
          <mxGeometry x="24" y="650" width="194" height="50" as="geometry" />
        </mxCell>
        <mxCell id="nSxlMIZwYaIGK_Xv7DRQ-168" value="&lt;h1&gt;&lt;font face=&quot;Helvetica&quot; style=&quot;font-size: 14px;&quot;&gt;Submit Requirements&lt;/font&gt;&lt;/h1&gt;" style="html=1;dashed=0;whiteSpace=wrap;" vertex="1" parent="77e6c97f196da883-2">
          <mxGeometry x="59" y="354" width="148" height="28" as="geometry" />
        </mxCell>
        <mxCell id="77e6c97f196da883-3" value="PESO MANAGER" style="swimlane;html=1;startSize=20;" parent="77e6c97f196da883-1" vertex="1">
          <mxGeometry x="240" width="200" height="970" as="geometry" />
        </mxCell>
        <mxCell id="nSxlMIZwYaIGK_Xv7DRQ-3" value="" style="ellipse;whiteSpace=wrap;html=1;aspect=fixed;fillColor=#1A1A1A;" vertex="1" parent="77e6c97f196da883-3">
          <mxGeometry x="88" y="25" width="30" height="30" as="geometry" />
        </mxCell>
        <mxCell id="nSxlMIZwYaIGK_Xv7DRQ-48" value="" style="edgeStyle=orthogonalEdgeStyle;rounded=0;orthogonalLoop=1;jettySize=auto;html=1;" edge="1" parent="77e6c97f196da883-3" source="nSxlMIZwYaIGK_Xv7DRQ-44" target="nSxlMIZwYaIGK_Xv7DRQ-47">
          <mxGeometry relative="1" as="geometry" />
        </mxCell>
        <mxCell id="nSxlMIZwYaIGK_Xv7DRQ-44" value="&lt;h1&gt;&lt;font face=&quot;Helvetica&quot; style=&quot;font-size: 18px;&quot;&gt;Signup&lt;/font&gt;&lt;/h1&gt;" style="html=1;dashed=0;whiteSpace=wrap;" vertex="1" parent="77e6c97f196da883-3">
          <mxGeometry x="54" y="73" width="100" height="30" as="geometry" />
        </mxCell>
        <mxCell id="nSxlMIZwYaIGK_Xv7DRQ-50" value="" style="edgeStyle=orthogonalEdgeStyle;rounded=0;orthogonalLoop=1;jettySize=auto;html=1;" edge="1" parent="77e6c97f196da883-3" source="nSxlMIZwYaIGK_Xv7DRQ-47" target="nSxlMIZwYaIGK_Xv7DRQ-49">
          <mxGeometry relative="1" as="geometry" />
        </mxCell>
        <mxCell id="nSxlMIZwYaIGK_Xv7DRQ-47" value="&lt;h1&gt;&lt;font face=&quot;Helvetica&quot; style=&quot;font-size: 18px;&quot;&gt;Login&lt;/font&gt;&lt;/h1&gt;" style="html=1;dashed=0;whiteSpace=wrap;" vertex="1" parent="77e6c97f196da883-3">
          <mxGeometry x="54" y="120" width="100" height="30" as="geometry" />
        </mxCell>
        <mxCell id="nSxlMIZwYaIGK_Xv7DRQ-52" value="" style="edgeStyle=orthogonalEdgeStyle;rounded=0;orthogonalLoop=1;jettySize=auto;html=1;" edge="1" parent="77e6c97f196da883-3" source="nSxlMIZwYaIGK_Xv7DRQ-49" target="nSxlMIZwYaIGK_Xv7DRQ-51">
          <mxGeometry relative="1" as="geometry" />
        </mxCell>
        <mxCell id="nSxlMIZwYaIGK_Xv7DRQ-49" value="&lt;h1&gt;&lt;font face=&quot;Helvetica&quot; style=&quot;font-size: 18px;&quot;&gt;Authentication&lt;/font&gt;&lt;/h1&gt;" style="html=1;dashed=0;whiteSpace=wrap;" vertex="1" parent="77e6c97f196da883-3">
          <mxGeometry x="35" y="166" width="138" height="28" as="geometry" />
        </mxCell>
        <mxCell id="nSxlMIZwYaIGK_Xv7DRQ-55" value="" style="edgeStyle=orthogonalEdgeStyle;rounded=0;orthogonalLoop=1;jettySize=auto;html=1;" edge="1" parent="77e6c97f196da883-3" source="nSxlMIZwYaIGK_Xv7DRQ-51" target="nSxlMIZwYaIGK_Xv7DRQ-54">
          <mxGeometry relative="1" as="geometry" />
        </mxCell>
        <mxCell id="nSxlMIZwYaIGK_Xv7DRQ-51" value="&lt;font face=&quot;Garamond&quot; style=&quot;font-size: 10px;&quot;&gt;Decision&lt;/font&gt;" style="shape=rhombus;html=1;dashed=0;whiteSpace=wrap;perimeter=rhombusPerimeter;" vertex="1" parent="77e6c97f196da883-3">
          <mxGeometry x="85.5" y="210" width="37" height="30" as="geometry" />
        </mxCell>
        <mxCell id="nSxlMIZwYaIGK_Xv7DRQ-53" value="" style="edgeStyle=elbowEdgeStyle;rounded=0;orthogonalLoop=1;jettySize=auto;html=1;exitX=0;exitY=0;exitDx=0;exitDy=0;" edge="1" parent="77e6c97f196da883-3">
          <mxGeometry relative="1" as="geometry">
            <mxPoint x="83" y="228.25" as="sourcePoint" />
            <mxPoint x="55" y="125.75" as="targetPoint" />
            <Array as="points">
              <mxPoint x="25" y="185.75" />
            </Array>
          </mxGeometry>
        </mxCell>
        <mxCell id="nSxlMIZwYaIGK_Xv7DRQ-183" value="" style="edgeStyle=orthogonalEdgeStyle;rounded=0;orthogonalLoop=1;jettySize=auto;html=1;" edge="1" parent="77e6c97f196da883-3" source="nSxlMIZwYaIGK_Xv7DRQ-54" target="nSxlMIZwYaIGK_Xv7DRQ-176">
          <mxGeometry relative="1" as="geometry" />
        </mxCell>
        <mxCell id="nSxlMIZwYaIGK_Xv7DRQ-54" value="&lt;h1&gt;&lt;font face=&quot;Helvetica&quot; style=&quot;font-size: 12px;&quot;&gt;Manage/Update Account&lt;/font&gt;&lt;/h1&gt;" style="html=1;dashed=0;whiteSpace=wrap;" vertex="1" parent="77e6c97f196da883-3">
          <mxGeometry x="26.5" y="258" width="155" height="28" as="geometry" />
        </mxCell>
        <mxCell id="nSxlMIZwYaIGK_Xv7DRQ-197" style="edgeStyle=orthogonalEdgeStyle;rounded=0;orthogonalLoop=1;jettySize=auto;html=1;exitX=1;exitY=0.5;exitDx=0;exitDy=0;" edge="1" parent="77e6c97f196da883-3" source="nSxlMIZwYaIGK_Xv7DRQ-91">
          <mxGeometry relative="1" as="geometry">
            <mxPoint x="253" y="368" as="targetPoint" />
          </mxGeometry>
        </mxCell>
        <mxCell id="nSxlMIZwYaIGK_Xv7DRQ-91" value="&lt;h1&gt;&lt;font face=&quot;Helvetica&quot; style=&quot;font-size: 14px;&quot;&gt;Verify/Approve Employer&lt;/font&gt;&lt;/h1&gt;" style="html=1;dashed=0;whiteSpace=wrap;" vertex="1" parent="77e6c97f196da883-3">
          <mxGeometry x="10" y="353" width="180" height="30" as="geometry" />
        </mxCell>
        <mxCell id="nSxlMIZwYaIGK_Xv7DRQ-115" value="&lt;h1&gt;&lt;font face=&quot;Helvetica&quot; style=&quot;font-size: 14px;&quot;&gt;View/Block Jobseeker&lt;/font&gt;&lt;/h1&gt;" style="html=1;dashed=0;whiteSpace=wrap;" vertex="1" parent="77e6c97f196da883-3">
          <mxGeometry x="10" y="491" width="180" height="30" as="geometry" />
        </mxCell>
        <mxCell id="nSxlMIZwYaIGK_Xv7DRQ-156" value="" style="edgeStyle=orthogonalEdgeStyle;rounded=0;orthogonalLoop=1;jettySize=auto;html=1;" edge="1" parent="77e6c97f196da883-3" source="nSxlMIZwYaIGK_Xv7DRQ-153" target="nSxlMIZwYaIGK_Xv7DRQ-155">
          <mxGeometry relative="1" as="geometry" />
        </mxCell>
        <mxCell id="nSxlMIZwYaIGK_Xv7DRQ-153" value="&lt;h1&gt;&lt;span style=&quot;font-size: 18px;&quot;&gt;View Matches&lt;/span&gt;&lt;/h1&gt;" style="html=1;dashed=0;whiteSpace=wrap;" vertex="1" parent="77e6c97f196da883-3">
          <mxGeometry x="17" y="578" width="170" height="30" as="geometry" />
        </mxCell>
        <mxCell id="nSxlMIZwYaIGK_Xv7DRQ-155" value="&lt;h1&gt;&lt;span style=&quot;font-size: 18px;&quot;&gt;Print Admin Report&lt;/span&gt;&lt;/h1&gt;" style="html=1;dashed=0;whiteSpace=wrap;" vertex="1" parent="77e6c97f196da883-3">
          <mxGeometry x="17" y="632" width="170" height="30" as="geometry" />
        </mxCell>
        <mxCell id="nSxlMIZwYaIGK_Xv7DRQ-176" value="&lt;h1&gt;&lt;font face=&quot;Helvetica&quot; style=&quot;font-size: 12px;&quot;&gt;Send Activation Approval&lt;/font&gt;&lt;/h1&gt;" style="html=1;dashed=0;whiteSpace=wrap;" vertex="1" parent="77e6c97f196da883-3">
          <mxGeometry x="26.5" y="306" width="155" height="28" as="geometry" />
        </mxCell>
        <mxCell id="77e6c97f196da883-4" value="SYSTEM" style="swimlane;html=1;startSize=20;" parent="77e6c97f196da883-1" vertex="1">
          <mxGeometry x="440" width="190" height="970" as="geometry" />
        </mxCell>
        <mxCell id="nSxlMIZwYaIGK_Xv7DRQ-66" value="" style="edgeStyle=elbowEdgeStyle;rounded=0;orthogonalLoop=1;jettySize=auto;html=1;exitX=0;exitY=0;exitDx=0;exitDy=0;entryX=0;entryY=0.5;entryDx=0;entryDy=0;" edge="1" parent="77e6c97f196da883-4" target="nSxlMIZwYaIGK_Xv7DRQ-56">
          <mxGeometry relative="1" as="geometry">
            <mxPoint x="258" y="204.25" as="sourcePoint" />
            <mxPoint x="217" y="90" as="targetPoint" />
            <Array as="points">
              <mxPoint x="197" y="150" />
            </Array>
          </mxGeometry>
        </mxCell>
        <mxCell id="nSxlMIZwYaIGK_Xv7DRQ-72" value="&lt;h1&gt;&lt;span style=&quot;font-size: 18px;&quot;&gt;SAVE&lt;/span&gt;&lt;/h1&gt;" style="html=1;dashed=0;whiteSpace=wrap;" vertex="1" parent="77e6c97f196da883-4">
          <mxGeometry x="52" y="357" width="95" height="30" as="geometry" />
        </mxCell>
        <mxCell id="nSxlMIZwYaIGK_Xv7DRQ-111" value="&lt;h1&gt;&lt;span style=&quot;font-size: 18px;&quot;&gt;Generates Matches&lt;/span&gt;&lt;/h1&gt;" style="html=1;dashed=0;whiteSpace=wrap;" vertex="1" parent="77e6c97f196da883-4">
          <mxGeometry x="12" y="536" width="170" height="30" as="geometry" />
        </mxCell>
        <mxCell id="nSxlMIZwYaIGK_Xv7DRQ-207" value="" style="shape=ellipse;html=1;dashed=0;whiteSpace=wrap;aspect=fixed;perimeter=ellipsePerimeter;" vertex="1" parent="77e6c97f196da883-4">
          <mxGeometry x="70" y="890" width="50" height="50" as="geometry" />
        </mxCell>
        <mxCell id="nSxlMIZwYaIGK_Xv7DRQ-206" value="" style="ellipse;whiteSpace=wrap;html=1;aspect=fixed;fillColor=#1A1A1A;" vertex="1" parent="77e6c97f196da883-4">
          <mxGeometry x="80" y="900" width="30" height="30" as="geometry" />
        </mxCell>
        <mxCell id="77e6c97f196da883-5" value="ADMIN" style="swimlane;html=1;startSize=20;" parent="77e6c97f196da883-1" vertex="1">
          <mxGeometry x="630" width="210" height="970" as="geometry" />
        </mxCell>
        <mxCell id="nSxlMIZwYaIGK_Xv7DRQ-57" value="" style="edgeStyle=orthogonalEdgeStyle;rounded=0;orthogonalLoop=1;jettySize=auto;html=1;" edge="1" parent="77e6c97f196da883-5" source="nSxlMIZwYaIGK_Xv7DRQ-4" target="nSxlMIZwYaIGK_Xv7DRQ-56">
          <mxGeometry relative="1" as="geometry" />
        </mxCell>
        <mxCell id="nSxlMIZwYaIGK_Xv7DRQ-4" value="" style="ellipse;whiteSpace=wrap;html=1;aspect=fixed;fillColor=#1A1A1A;" vertex="1" parent="77e6c97f196da883-5">
          <mxGeometry x="67" y="24" width="30" height="30" as="geometry" />
        </mxCell>
        <mxCell id="nSxlMIZwYaIGK_Xv7DRQ-60" value="" style="edgeStyle=orthogonalEdgeStyle;rounded=0;orthogonalLoop=1;jettySize=auto;html=1;" edge="1" parent="77e6c97f196da883-5">
          <mxGeometry relative="1" as="geometry">
            <mxPoint x="77" y="105" as="sourcePoint" />
            <mxPoint x="81" y="132" as="targetPoint" />
          </mxGeometry>
        </mxCell>
        <mxCell id="nSxlMIZwYaIGK_Xv7DRQ-56" value="&lt;h1&gt;&lt;font face=&quot;Helvetica&quot; style=&quot;font-size: 18px;&quot;&gt;Login&lt;/font&gt;&lt;/h1&gt;" style="html=1;dashed=0;whiteSpace=wrap;" vertex="1" parent="77e6c97f196da883-5">
          <mxGeometry x="32" y="75" width="100" height="30" as="geometry" />
        </mxCell>
        <mxCell id="nSxlMIZwYaIGK_Xv7DRQ-65" value="" style="edgeStyle=orthogonalEdgeStyle;rounded=0;orthogonalLoop=1;jettySize=auto;html=1;" edge="1" parent="77e6c97f196da883-5">
          <mxGeometry relative="1" as="geometry">
            <mxPoint x="89" y="161" as="sourcePoint" />
            <mxPoint x="85.5" y="191" as="targetPoint" />
          </mxGeometry>
        </mxCell>
        <mxCell id="nSxlMIZwYaIGK_Xv7DRQ-58" value="&lt;h1&gt;&lt;font face=&quot;Helvetica&quot; style=&quot;font-size: 18px;&quot;&gt;Authentication&lt;/font&gt;&lt;/h1&gt;" style="html=1;dashed=0;whiteSpace=wrap;" vertex="1" parent="77e6c97f196da883-5">
          <mxGeometry x="17" y="132" width="138" height="28" as="geometry" />
        </mxCell>
        <mxCell id="nSxlMIZwYaIGK_Xv7DRQ-204" value="" style="edgeStyle=orthogonalEdgeStyle;rounded=0;orthogonalLoop=1;jettySize=auto;html=1;" edge="1" parent="77e6c97f196da883-5" source="nSxlMIZwYaIGK_Xv7DRQ-64" target="nSxlMIZwYaIGK_Xv7DRQ-203">
          <mxGeometry relative="1" as="geometry" />
        </mxCell>
        <mxCell id="nSxlMIZwYaIGK_Xv7DRQ-64" value="&lt;font face=&quot;Garamond&quot; style=&quot;font-size: 10px;&quot;&gt;Decision&lt;/font&gt;" style="shape=rhombus;html=1;dashed=0;whiteSpace=wrap;perimeter=rhombusPerimeter;" vertex="1" parent="77e6c97f196da883-5">
          <mxGeometry x="67" y="189" width="37" height="30" as="geometry" />
        </mxCell>
        <mxCell id="nSxlMIZwYaIGK_Xv7DRQ-93" value="&lt;h1&gt;&lt;font face=&quot;Helvetica&quot; style=&quot;font-size: 14px;&quot;&gt;Activate/Deactivate PESO Manager&lt;/font&gt;&lt;/h1&gt;" style="html=1;dashed=0;whiteSpace=wrap;" vertex="1" parent="77e6c97f196da883-5">
          <mxGeometry x="11" y="297" width="179" height="44" as="geometry" />
        </mxCell>
        <mxCell id="nSxlMIZwYaIGK_Xv7DRQ-205" value="" style="edgeStyle=orthogonalEdgeStyle;rounded=0;orthogonalLoop=1;jettySize=auto;html=1;entryX=0.423;entryY=0.05;entryDx=0;entryDy=0;entryPerimeter=0;" edge="1" parent="77e6c97f196da883-5" source="nSxlMIZwYaIGK_Xv7DRQ-203" target="nSxlMIZwYaIGK_Xv7DRQ-93">
          <mxGeometry relative="1" as="geometry" />
        </mxCell>
        <mxCell id="nSxlMIZwYaIGK_Xv7DRQ-203" value="&lt;h1&gt;&lt;font face=&quot;Helvetica&quot; style=&quot;font-size: 12px;&quot;&gt;Manage/Update Account&lt;/font&gt;&lt;/h1&gt;" style="html=1;dashed=0;whiteSpace=wrap;" vertex="1" parent="77e6c97f196da883-5">
          <mxGeometry x="8" y="241" width="155.5" height="30" as="geometry" />
        </mxCell>
        <mxCell id="77e6c97f196da883-6" value="JOBSEEKER" style="swimlane;html=1;startSize=20;" parent="77e6c97f196da883-1" vertex="1">
          <mxGeometry x="840" width="190" height="970" as="geometry" />
        </mxCell>
        <mxCell id="nSxlMIZwYaIGK_Xv7DRQ-74" value="" style="edgeStyle=orthogonalEdgeStyle;rounded=0;orthogonalLoop=1;jettySize=auto;html=1;" edge="1" parent="77e6c97f196da883-6">
          <mxGeometry relative="1" as="geometry">
            <mxPoint x="86" y="55" as="sourcePoint" />
            <mxPoint x="86" y="71" as="targetPoint" />
          </mxGeometry>
        </mxCell>
        <mxCell id="nSxlMIZwYaIGK_Xv7DRQ-5" value="" style="ellipse;whiteSpace=wrap;html=1;aspect=fixed;fillColor=#1A1A1A;" vertex="1" parent="77e6c97f196da883-6">
          <mxGeometry x="71" y="24" width="30" height="30" as="geometry" />
        </mxCell>
        <mxCell id="nSxlMIZwYaIGK_Xv7DRQ-76" value="" style="edgeStyle=orthogonalEdgeStyle;rounded=0;orthogonalLoop=1;jettySize=auto;html=1;" edge="1" parent="77e6c97f196da883-6">
          <mxGeometry relative="1" as="geometry">
            <mxPoint x="86" y="92" as="sourcePoint" />
            <mxPoint x="86" y="122" as="targetPoint" />
          </mxGeometry>
        </mxCell>
        <mxCell id="nSxlMIZwYaIGK_Xv7DRQ-73" value="&lt;h1&gt;&lt;font face=&quot;Helvetica&quot; style=&quot;font-size: 18px;&quot;&gt;Signup&lt;/font&gt;&lt;/h1&gt;" style="html=1;dashed=0;whiteSpace=wrap;" vertex="1" parent="77e6c97f196da883-6">
          <mxGeometry x="36" y="70" width="100" height="30" as="geometry" />
        </mxCell>
        <mxCell id="nSxlMIZwYaIGK_Xv7DRQ-78" value="" style="edgeStyle=orthogonalEdgeStyle;rounded=0;orthogonalLoop=1;jettySize=auto;html=1;" edge="1" parent="77e6c97f196da883-6">
          <mxGeometry relative="1" as="geometry">
            <mxPoint x="86" y="140" as="sourcePoint" />
            <mxPoint x="86" y="178" as="targetPoint" />
          </mxGeometry>
        </mxCell>
        <mxCell id="nSxlMIZwYaIGK_Xv7DRQ-75" value="&lt;h1&gt;&lt;font face=&quot;Helvetica&quot; style=&quot;font-size: 18px;&quot;&gt;Login&lt;/font&gt;&lt;/h1&gt;" style="html=1;dashed=0;whiteSpace=wrap;" vertex="1" parent="77e6c97f196da883-6">
          <mxGeometry x="36" y="122" width="100" height="30" as="geometry" />
        </mxCell>
        <mxCell id="nSxlMIZwYaIGK_Xv7DRQ-80" value="" style="edgeStyle=orthogonalEdgeStyle;rounded=0;orthogonalLoop=1;jettySize=auto;html=1;" edge="1" parent="77e6c97f196da883-6" source="nSxlMIZwYaIGK_Xv7DRQ-77" target="nSxlMIZwYaIGK_Xv7DRQ-79">
          <mxGeometry relative="1" as="geometry" />
        </mxCell>
        <mxCell id="nSxlMIZwYaIGK_Xv7DRQ-77" value="&lt;h1&gt;&lt;font face=&quot;Helvetica&quot; style=&quot;font-size: 18px;&quot;&gt;Authentication&lt;/font&gt;&lt;/h1&gt;" style="html=1;dashed=0;whiteSpace=wrap;" vertex="1" parent="77e6c97f196da883-6">
          <mxGeometry x="18" y="177" width="138" height="28" as="geometry" />
        </mxCell>
        <mxCell id="nSxlMIZwYaIGK_Xv7DRQ-83" value="" style="edgeStyle=orthogonalEdgeStyle;rounded=0;orthogonalLoop=1;jettySize=auto;html=1;" edge="1" parent="77e6c97f196da883-6">
          <mxGeometry relative="1" as="geometry">
            <mxPoint x="85" y="257" as="sourcePoint" />
            <mxPoint x="87.80000000000018" y="279" as="targetPoint" />
          </mxGeometry>
        </mxCell>
        <mxCell id="nSxlMIZwYaIGK_Xv7DRQ-79" value="&lt;font face=&quot;Garamond&quot; style=&quot;font-size: 10px;&quot;&gt;Decision&lt;/font&gt;" style="shape=rhombus;html=1;dashed=0;whiteSpace=wrap;perimeter=rhombusPerimeter;" vertex="1" parent="77e6c97f196da883-6">
          <mxGeometry x="68.5" y="229" width="37" height="30" as="geometry" />
        </mxCell>
        <mxCell id="nSxlMIZwYaIGK_Xv7DRQ-81" value="" style="edgeStyle=elbowEdgeStyle;rounded=0;orthogonalLoop=1;jettySize=auto;html=1;exitX=0;exitY=0;exitDx=0;exitDy=0;entryX=0;entryY=0.5;entryDx=0;entryDy=0;" edge="1" parent="77e6c97f196da883-6">
          <mxGeometry relative="1" as="geometry">
            <mxPoint x="71" y="244.25" as="sourcePoint" />
            <mxPoint x="35" y="130" as="targetPoint" />
            <Array as="points">
              <mxPoint x="10" y="190" />
            </Array>
          </mxGeometry>
        </mxCell>
        <mxCell id="nSxlMIZwYaIGK_Xv7DRQ-82" value="&lt;h1&gt;&lt;font face=&quot;Helvetica&quot; style=&quot;font-size: 12px;&quot;&gt;Manage/Update Account&lt;/font&gt;&lt;/h1&gt;" style="html=1;dashed=0;whiteSpace=wrap;" vertex="1" parent="77e6c97f196da883-6">
          <mxGeometry x="12" y="277" width="155.5" height="28" as="geometry" />
        </mxCell>
        <mxCell id="nSxlMIZwYaIGK_Xv7DRQ-143" value="" style="edgeStyle=orthogonalEdgeStyle;rounded=0;orthogonalLoop=1;jettySize=auto;html=1;" edge="1" parent="77e6c97f196da883-6" source="nSxlMIZwYaIGK_Xv7DRQ-120" target="nSxlMIZwYaIGK_Xv7DRQ-142">
          <mxGeometry relative="1" as="geometry" />
        </mxCell>
        <mxCell id="nSxlMIZwYaIGK_Xv7DRQ-120" value="&lt;h1&gt;&lt;font face=&quot;Helvetica&quot; style=&quot;font-size: 18px;&quot;&gt;View Matched Jobs&lt;/font&gt;&lt;/h1&gt;" style="html=1;dashed=0;whiteSpace=wrap;" vertex="1" parent="77e6c97f196da883-6">
          <mxGeometry x="10" y="500" width="170" height="28" as="geometry" />
        </mxCell>
        <mxCell id="nSxlMIZwYaIGK_Xv7DRQ-152" value="" style="edgeStyle=orthogonalEdgeStyle;rounded=0;orthogonalLoop=1;jettySize=auto;html=1;" edge="1" parent="77e6c97f196da883-6" source="nSxlMIZwYaIGK_Xv7DRQ-138" target="nSxlMIZwYaIGK_Xv7DRQ-151">
          <mxGeometry relative="1" as="geometry" />
        </mxCell>
        <mxCell id="nSxlMIZwYaIGK_Xv7DRQ-138" value="&lt;h1&gt;&lt;font face=&quot;Helvetica&quot; style=&quot;font-size: 18px;&quot;&gt;View Notif. Accept/Reject Offer&lt;/font&gt;&lt;/h1&gt;" style="html=1;dashed=0;whiteSpace=wrap;" vertex="1" parent="77e6c97f196da883-6">
          <mxGeometry x="10" y="630" width="170" height="50" as="geometry" />
        </mxCell>
        <mxCell id="nSxlMIZwYaIGK_Xv7DRQ-150" value="" style="edgeStyle=orthogonalEdgeStyle;rounded=0;orthogonalLoop=1;jettySize=auto;html=1;" edge="1" parent="77e6c97f196da883-6" source="nSxlMIZwYaIGK_Xv7DRQ-142" target="nSxlMIZwYaIGK_Xv7DRQ-138">
          <mxGeometry relative="1" as="geometry" />
        </mxCell>
        <mxCell id="nSxlMIZwYaIGK_Xv7DRQ-142" value="&lt;h1&gt;&lt;font face=&quot;Helvetica&quot; style=&quot;font-size: 18px;&quot;&gt;Apply Job Matches&lt;/font&gt;&lt;/h1&gt;" style="html=1;dashed=0;whiteSpace=wrap;" vertex="1" parent="77e6c97f196da883-6">
          <mxGeometry x="10" y="550" width="170" height="28" as="geometry" />
        </mxCell>
        <mxCell id="nSxlMIZwYaIGK_Xv7DRQ-151" value="&lt;h1&gt;&lt;font face=&quot;Helvetica&quot; style=&quot;font-size: 18px;&quot;&gt;View Company Details&lt;/font&gt;&lt;/h1&gt;" style="html=1;dashed=0;whiteSpace=wrap;" vertex="1" parent="77e6c97f196da883-6">
          <mxGeometry x="7" y="740" width="177" height="48" as="geometry" />
        </mxCell>
        <mxCell id="nSxlMIZwYaIGK_Xv7DRQ-104" style="edgeStyle=orthogonalEdgeStyle;rounded=0;orthogonalLoop=1;jettySize=auto;html=1;" edge="1" parent="77e6c97f196da883-1" source="nSxlMIZwYaIGK_Xv7DRQ-93" target="nSxlMIZwYaIGK_Xv7DRQ-72">
          <mxGeometry relative="1" as="geometry" />
        </mxCell>
        <mxCell id="nSxlMIZwYaIGK_Xv7DRQ-105" style="edgeStyle=orthogonalEdgeStyle;rounded=0;orthogonalLoop=1;jettySize=auto;html=1;exitX=0.5;exitY=1;exitDx=0;exitDy=0;entryX=1;entryY=0.25;entryDx=0;entryDy=0;" edge="1" parent="77e6c97f196da883-1" source="nSxlMIZwYaIGK_Xv7DRQ-82" target="nSxlMIZwYaIGK_Xv7DRQ-72">
          <mxGeometry relative="1" as="geometry" />
        </mxCell>
        <mxCell id="nSxlMIZwYaIGK_Xv7DRQ-147" style="edgeStyle=orthogonalEdgeStyle;rounded=0;orthogonalLoop=1;jettySize=auto;html=1;entryX=1;entryY=0.5;entryDx=0;entryDy=0;exitX=0;exitY=0.5;exitDx=0;exitDy=0;" edge="1" parent="77e6c97f196da883-1" source="nSxlMIZwYaIGK_Xv7DRQ-142" target="nSxlMIZwYaIGK_Xv7DRQ-145">
          <mxGeometry relative="1" as="geometry">
            <Array as="points">
              <mxPoint x="693" y="564" />
              <mxPoint x="693" y="675" />
            </Array>
          </mxGeometry>
        </mxCell>
        <mxCell id="nSxlMIZwYaIGK_Xv7DRQ-154" style="edgeStyle=orthogonalEdgeStyle;rounded=0;orthogonalLoop=1;jettySize=auto;html=1;entryX=1;entryY=0.25;entryDx=0;entryDy=0;exitX=0.5;exitY=1;exitDx=0;exitDy=0;" edge="1" parent="77e6c97f196da883-1" source="nSxlMIZwYaIGK_Xv7DRQ-111" target="nSxlMIZwYaIGK_Xv7DRQ-153">
          <mxGeometry relative="1" as="geometry">
            <mxPoint x="513" y="559" as="sourcePoint" />
            <mxPoint x="427" y="605.5" as="targetPoint" />
            <Array as="points">
              <mxPoint x="537" y="586" />
              <mxPoint x="513" y="586" />
            </Array>
          </mxGeometry>
        </mxCell>
        <mxCell id="nSxlMIZwYaIGK_Xv7DRQ-157" style="edgeStyle=orthogonalEdgeStyle;rounded=0;orthogonalLoop=1;jettySize=auto;html=1;entryX=0;entryY=0.25;entryDx=0;entryDy=0;" edge="1" parent="77e6c97f196da883-1" source="nSxlMIZwYaIGK_Xv7DRQ-106" target="nSxlMIZwYaIGK_Xv7DRQ-111">
          <mxGeometry relative="1" as="geometry">
            <Array as="points">
              <mxPoint x="125" y="544" />
              <mxPoint x="333" y="544" />
            </Array>
          </mxGeometry>
        </mxCell>
        <mxCell id="nSxlMIZwYaIGK_Xv7DRQ-159" style="edgeStyle=orthogonalEdgeStyle;rounded=0;orthogonalLoop=1;jettySize=auto;html=1;exitX=0;exitY=0.75;exitDx=0;exitDy=0;" edge="1" parent="77e6c97f196da883-1" source="nSxlMIZwYaIGK_Xv7DRQ-111" target="nSxlMIZwYaIGK_Xv7DRQ-136">
          <mxGeometry relative="1" as="geometry" />
        </mxCell>
        <mxCell id="nSxlMIZwYaIGK_Xv7DRQ-160" style="edgeStyle=orthogonalEdgeStyle;rounded=0;orthogonalLoop=1;jettySize=auto;html=1;entryX=0;entryY=0.5;entryDx=0;entryDy=0;" edge="1" parent="77e6c97f196da883-1" source="nSxlMIZwYaIGK_Xv7DRQ-139" target="nSxlMIZwYaIGK_Xv7DRQ-138">
          <mxGeometry relative="1" as="geometry">
            <Array as="points">
              <mxPoint x="530" y="755" />
              <mxPoint x="530" y="700" />
              <mxPoint x="803" y="700" />
              <mxPoint x="803" y="655" />
            </Array>
          </mxGeometry>
        </mxCell>
        <mxCell id="nSxlMIZwYaIGK_Xv7DRQ-161" style="edgeStyle=orthogonalEdgeStyle;rounded=0;orthogonalLoop=1;jettySize=auto;html=1;entryX=0;entryY=0.5;entryDx=0;entryDy=0;" edge="1" parent="77e6c97f196da883-1" source="nSxlMIZwYaIGK_Xv7DRQ-111" target="nSxlMIZwYaIGK_Xv7DRQ-120">
          <mxGeometry relative="1" as="geometry" />
        </mxCell>
        <mxCell id="nSxlMIZwYaIGK_Xv7DRQ-172" value="" style="edgeStyle=orthogonalEdgeStyle;rounded=0;orthogonalLoop=1;jettySize=auto;html=1;" edge="1" parent="77e6c97f196da883-1" source="nSxlMIZwYaIGK_Xv7DRQ-168" target="nSxlMIZwYaIGK_Xv7DRQ-91">
          <mxGeometry relative="1" as="geometry" />
        </mxCell>
        <mxCell id="nSxlMIZwYaIGK_Xv7DRQ-181" style="edgeStyle=orthogonalEdgeStyle;rounded=0;orthogonalLoop=1;jettySize=auto;html=1;entryX=0;entryY=0.25;entryDx=0;entryDy=0;" edge="1" parent="77e6c97f196da883-1" source="nSxlMIZwYaIGK_Xv7DRQ-176" target="nSxlMIZwYaIGK_Xv7DRQ-93">
          <mxGeometry relative="1" as="geometry" />
        </mxCell>
        <mxCell id="nSxlMIZwYaIGK_Xv7DRQ-194" style="edgeStyle=orthogonalEdgeStyle;rounded=0;orthogonalLoop=1;jettySize=auto;html=1;exitX=0;exitY=1;exitDx=0;exitDy=0;entryX=1;entryY=0.5;entryDx=0;entryDy=0;" edge="1" parent="77e6c97f196da883-1" source="nSxlMIZwYaIGK_Xv7DRQ-72" target="nSxlMIZwYaIGK_Xv7DRQ-106">
          <mxGeometry relative="1" as="geometry">
            <Array as="points">
              <mxPoint x="513" y="387" />
              <mxPoint x="513" y="400" />
              <mxPoint x="214" y="400" />
            </Array>
          </mxGeometry>
        </mxCell>
        <mxCell id="nSxlMIZwYaIGK_Xv7DRQ-208" style="edgeStyle=orthogonalEdgeStyle;rounded=0;orthogonalLoop=1;jettySize=auto;html=1;exitX=0.5;exitY=1;exitDx=0;exitDy=0;entryX=1;entryY=0.5;entryDx=0;entryDy=0;" edge="1" parent="77e6c97f196da883-1" source="nSxlMIZwYaIGK_Xv7DRQ-93" target="nSxlMIZwYaIGK_Xv7DRQ-207">
          <mxGeometry relative="1" as="geometry" />
        </mxCell>
        <mxCell id="nSxlMIZwYaIGK_Xv7DRQ-210" style="edgeStyle=orthogonalEdgeStyle;rounded=0;orthogonalLoop=1;jettySize=auto;html=1;entryX=1;entryY=1;entryDx=0;entryDy=0;" edge="1" parent="77e6c97f196da883-1" source="nSxlMIZwYaIGK_Xv7DRQ-151" target="nSxlMIZwYaIGK_Xv7DRQ-207">
          <mxGeometry relative="1" as="geometry">
            <mxPoint x="563" y="940" as="targetPoint" />
            <Array as="points">
              <mxPoint x="943" y="933" />
            </Array>
          </mxGeometry>
        </mxCell>
        <mxCell id="nSxlMIZwYaIGK_Xv7DRQ-211" style="edgeStyle=orthogonalEdgeStyle;rounded=0;orthogonalLoop=1;jettySize=auto;html=1;exitX=0.5;exitY=1;exitDx=0;exitDy=0;entryX=0;entryY=0.5;entryDx=0;entryDy=0;" edge="1" parent="77e6c97f196da883-1" source="nSxlMIZwYaIGK_Xv7DRQ-155" target="nSxlMIZwYaIGK_Xv7DRQ-207">
          <mxGeometry relative="1" as="geometry" />
        </mxCell>
        <mxCell id="nSxlMIZwYaIGK_Xv7DRQ-212" style="edgeStyle=orthogonalEdgeStyle;rounded=0;orthogonalLoop=1;jettySize=auto;html=1;entryX=0;entryY=1;entryDx=0;entryDy=0;" edge="1" parent="77e6c97f196da883-1" source="nSxlMIZwYaIGK_Xv7DRQ-139" target="nSxlMIZwYaIGK_Xv7DRQ-207">
          <mxGeometry relative="1" as="geometry">
            <Array as="points">
              <mxPoint x="121" y="933" />
            </Array>
          </mxGeometry>
        </mxCell>
        <mxCell id="nSxlMIZwYaIGK_Xv7DRQ-26" value="" style="edgeStyle=orthogonalEdgeStyle;rounded=0;orthogonalLoop=1;jettySize=auto;html=1;strokeColor=default;" edge="1" parent="1">
          <mxGeometry relative="1" as="geometry">
            <mxPoint x="224.5" y="193" as="sourcePoint" />
            <mxPoint x="224.5" y="222" as="targetPoint" />
          </mxGeometry>
        </mxCell>
        <mxCell id="nSxlMIZwYaIGK_Xv7DRQ-37" value="&lt;h1&gt;&lt;font face=&quot;Helvetica&quot; style=&quot;font-size: 12px;&quot;&gt;Manage/Update Account&lt;/font&gt;&lt;/h1&gt;" style="html=1;dashed=0;whiteSpace=wrap;" vertex="1" parent="1">
          <mxGeometry x="152" y="321" width="155" height="28" as="geometry" />
        </mxCell>
        <mxCell id="nSxlMIZwYaIGK_Xv7DRQ-39" value="" style="edgeStyle=orthogonalEdgeStyle;rounded=0;orthogonalLoop=1;jettySize=auto;html=1;" edge="1" parent="1" source="nSxlMIZwYaIGK_Xv7DRQ-24" target="nSxlMIZwYaIGK_Xv7DRQ-37">
          <mxGeometry relative="1" as="geometry" />
        </mxCell>
        <mxCell id="nSxlMIZwYaIGK_Xv7DRQ-43" value="" style="edgeStyle=orthogonalEdgeStyle;rounded=0;orthogonalLoop=1;jettySize=auto;html=1;strokeColor=default;" edge="1" parent="1">
          <mxGeometry relative="1" as="geometry">
            <mxPoint x="440" y="64" as="sourcePoint" />
            <mxPoint x="440" y="93" as="targetPoint" />
          </mxGeometry>
        </mxCell>
        <mxCell id="nSxlMIZwYaIGK_Xv7DRQ-119" value="" style="edgeStyle=orthogonalEdgeStyle;rounded=0;orthogonalLoop=1;jettySize=auto;html=1;" edge="1" parent="1" source="nSxlMIZwYaIGK_Xv7DRQ-114" target="nSxlMIZwYaIGK_Xv7DRQ-115">
          <mxGeometry relative="1" as="geometry" />
        </mxCell>
        <mxCell id="nSxlMIZwYaIGK_Xv7DRQ-114" value="&lt;h1&gt;&lt;font face=&quot;Helvetica&quot; style=&quot;font-size: 14px;&quot;&gt;View/Block Employer&lt;/font&gt;&lt;/h1&gt;" style="html=1;dashed=0;whiteSpace=wrap;" vertex="1" parent="1">
          <mxGeometry x="347" y="460" width="180" height="30" as="geometry" />
        </mxCell>
        <mxCell id="nSxlMIZwYaIGK_Xv7DRQ-118" style="edgeStyle=orthogonalEdgeStyle;rounded=0;orthogonalLoop=1;jettySize=auto;html=1;" edge="1" parent="1" source="nSxlMIZwYaIGK_Xv7DRQ-72" target="nSxlMIZwYaIGK_Xv7DRQ-114">
          <mxGeometry relative="1" as="geometry">
            <Array as="points">
              <mxPoint x="640" y="430" />
              <mxPoint x="437" y="430" />
            </Array>
          </mxGeometry>
        </mxCell>
        <mxCell id="nSxlMIZwYaIGK_Xv7DRQ-173" value="" style="edgeStyle=orthogonalEdgeStyle;rounded=0;orthogonalLoop=1;jettySize=auto;html=1;strokeColor=default;" edge="1" parent="1">
          <mxGeometry relative="1" as="geometry">
            <mxPoint x="229.5" y="348" as="sourcePoint" />
            <mxPoint x="229.5" y="377" as="targetPoint" />
          </mxGeometry>
        </mxCell>
      </root>
    </mxGraphModel>
  </diagram>
</mxfile>
